PathFileType	4	(X/Y/Z)	19_1_38_p0_0-232.trc
DataRate	CameraRate	NumFrames	NumMarkers	Units	OrigDataRate	OrigDataStartFrame	OrigNumFrames
47.0	47.0	7	27	m	47.0	0	233
Frame#	Time	RHip			RKnee			RAnkle			RBigToe			RSmallToe			RHeel			LHip			LKnee			LAnkle			LBigToe			LSmallToe			LHeel			Neck			Head			Nose			RShoulder			RElbow			RWrist			RThumb			RIndex			RPinky			LShoulder			LElbow			LWrist			LThumb			LIndex			LPinky			
		X1	Y1	Z1	X2	Y2	Z2	X3	Y3	Z3	X4	Y4	Z4	X5	Y5	Z5	X6	Y6	Z6	X7	Y7	Z7	X8	Y8	Z8	X9	Y9	Z9	X10	Y10	Z10	X11	Y11	Z11	X12	Y12	Z12	X13	Y13	Z13	X14	Y14	Z14	X15	Y15	Z15	X16	Y16	Z16	X17	Y17	Z17	X18	Y18	Z18	X19	Y19	Z19	X20	Y20	Z20	X21	Y21	Z21	X22	Y22	Z22	X23	Y23	Z23	X24	Y24	Z24	X25	Y25	Z25	X26	Y26	Z26	X27	Y27	Z27	
0	0.0	0.30320800092914424	0.5495754820058188	0.89143108507077	0.2967210025814256	0.5789272766310207	1.310668770552101	0.28452940908404944	0.5909535251262401	1.7356534890117508	0.2802537838734218	0.39870715968493103	1.7462059306927078	0.34913402420987955	0.4214399806956191	1.742278043681146	0.25075751041242517	0.6717227150937904	1.806502163705304	0.07424530656076851	0.5318929722476088	0.8968359889150094	0.08005165045403449	0.5491865662667558	1.2989972894346493	0.06710497450568349	0.54690002965783	1.7027584900422672	0.10673822071333838	0.3322690302307094	1.7003803790106697	0.03588922240531595	0.4029751528832593	1.7398625631069897	0.07198093285663856	0.5924911141426826	1.7703524533367434	0.19988324159200552	0.5202967666776789	0.3068707580788628	0.21018085984464105	0.4942372324150373	0.04326185815216876	0.19769457881302716	0.4173102425116971	0.1898412042934843	0.35743960769148825	0.557316952167422	0.404411893424933	0.4124112798563694	0.5336652592546505	0.663153254553559	0.4353038771524925	0.4942371999883346	0.8761627596615598	0.3927461268306476	0.394691697870012	0.9631148796425277	0.4139489167108124	0.3871094352182208	0.9754068425440812	0.43251389100722587	0.4866532698301006	1.003365733302642	0.040193413619812636	0.53778692985952	0.38772876207873197	-0.030272139724241552	0.5443926602902521	0.6485583231054259	-0.038930003719402514	0.5183101638037484	0.8712382198996429	-0.03364021052910867	0.5309928912211206	0.9873122199460937	-0.046707294516164816	0.5296519590508102	1.0099991896449352	-0.057698420865809674	0.5405937757265259	0.9969771987459692
1	0.02127659574468085	0.3006463024508946	0.5371732413762412	0.8872198193963456	0.29670533198772164	0.5787820057216826	1.3105706419117247	0.27782684766752913	0.6050737873172163	1.7399470761921683	0.2772336936031233	0.3868375290949201	1.7366129227098148	0.3465088539730716	0.40960827162374613	1.7333953750997797	0.2503375800404314	0.6716309681210167	1.806114010907655	0.08021291151135022	0.5187088047832554	0.8921067306007753	0.08009879085669352	0.5490151530605512	1.2988280494677722	0.07105640847586446	0.5487545852263498	1.7035259858933045	0.1067508401081617	0.33234802311948686	1.7004386525387127	0.03482659159173079	0.4029764812417993	1.7441275019970006	0.07845222505452594	0.5768187713704721	1.7598856005550128	0.19982904302576082	0.5202660887016282	0.30697652669657605	0.21015577879406228	0.4938587738552678	0.043059182983644306	0.1977520600741379	0.41746708945243055	0.18988786693523527	0.35048904697877065	0.5435485805713406	0.4020442316543305	0.4120520816327447	0.5346967641403232	0.6595756849666456	0.4319426926234644	0.48264277317403104	0.8722759789112885	0.3934757814145377	0.3948705577844734	0.967363724156344	0.4139058965287449	0.38712202418505276	0.9755699764338316	0.43227498294968136	0.48703398905536516	1.0037079673111233	0.03852967960662048	0.5260155095942282	0.38561548165963616	-0.030379653970718238	0.5446945994578616	0.6450852813087725	-0.038256564536670756	0.517791480891909	0.8676946982593594	-0.026831953005815194	0.5187540241383501	0.9786014494999669	-0.040624795201272705	0.5168214447934499	1.0047133673686903	-0.05703008108985473	0.5393531820210736	0.9935627617409413
2	0.0425531914893617	0.30324144330914427	0.5495742339264938	0.8913834705761716	0.2967003304117697	0.5788244236570789	1.3106297940217688	0.2788216151658084	0.6066833075218885	1.7460012072019233	0.2771891367763415	0.3869405694645202	1.7362251827104473	0.3465507131573803	0.40975097849585734	1.7333197382494385	0.250359686681676	0.6715804122688147	1.8061631409546894	0.08013434465207442	0.5188094737502776	0.8921131038528117	0.08008658635332086	0.5491132604367284	1.298951548880387	0.07162292702130574	0.546918565644086	1.7071455239329505	0.10567577831822494	0.332466905104745	1.7043857224007046	0.03487036323481285	0.40274032023000195	1.7441551768304222	0.07859443502451713	0.5762326158891332	1.7599531860866344	0.19979698161794776	0.5202802192562359	0.3069716307383335	0.2100857414632059	0.49436401399324553	0.04011961679681279	0.19773832952630155	0.41745720815013065	0.18988213649520655	0.3505712663255417	0.5440008088797482	0.39833567118851365	0.4120341656811225	0.5344610642638661	0.6594183051602341	0.43200664928428517	0.48251408670692403	0.8722222532316375	0.39353063000875405	0.3946610838983382	0.9671808453740995	0.4139286071284006	0.387006545956431	0.9755146846454419	0.4317585386854464	0.4865104081459026	1.007329463579351	0.0403112780690018	0.5374024658649433	0.38754317768520935	-0.0303279554261013	0.5444748273470691	0.6450156180559967	-0.03873251578892247	0.5174310687481012	0.8711686826149129	-0.027406522473751586	0.5187614962769556	0.981940992645552	-0.040278440142390556	0.517963848172446	1.0091044760715135	-0.05754525705317812	0.5391154720434097	0.9966033069728271
3	0.06382978723404255	0.30057603812544015	0.5372655182344274	0.8872622220109666	0.2966697211453121	0.5787825979706919	1.310662252497968	0.2786157514681141	0.6065274949311139	1.7458118401719207	0.27972802487598875	0.39870225075123855	1.743002737231151	0.3441155435707663	0.39961118933786705	1.7261231864978115	0.25000868310171404	0.6705592691984003	1.8051077389483927	0.08003216800623111	0.5187947800444067	0.8921828895517906	0.08010204292851346	0.5490419858673894	1.2988886224341412	0.07158461538864397	0.5469936307428439	1.707125669056005	0.10571836584048183	0.3322010314843811	1.7043575947160858	0.03487095668161645	0.40250071778077773	1.7440945492874504	0.07849614546580776	0.575955331920788	1.7598750548305548	0.19458619301165794	0.5324832019555321	0.30898565467496075	0.2101113230173251	0.49441343933069576	0.04002710434866104	0.19778965333702855	0.4173459000019464	0.18982806197289376	0.3544132942354855	0.5462112383589941	0.39863798767060554	0.41231213494302704	0.5337589612347813	0.6630711267940923	0.4319695966537298	0.48254353392098387	0.8722205586633587	0.39353481464915224	0.39461405913067876	0.9671285741995359	0.41391518714430003	0.38708716879826494	0.9755121896807151	0.43232283932808563	0.4867165765680078	1.003611445836557	0.0404837341540321	0.5369085249810007	0.39119702860207056	-0.030716624530798122	0.5435973511726591	0.6408206825179096	-0.038957364026942436	0.5174513689740647	0.871027279393816	-0.027595024714018947	0.5189818861315594	0.9815177798721104	-0.04078694038697206	0.5169078848096706	1.0041963973586394	-0.057813399792624245	0.5390628767487843	0.9963555330866525
4	0.0851063829787234	0.30052310358991646	0.5374172783266963	0.8873157648273574	0.2966742910050212	0.5786937435871589	1.310668837121646	0.27875777992237	0.6066425832735041	1.7459386747864847	0.2771409232538447	0.38779441148367355	1.7354155062324679	0.3442088696263805	0.3996186185727157	1.7258120121766969	0.25003445064693774	0.6704062689954591	1.8049767735308073	0.08008124327955439	0.5189544455734818	0.8921825430743505	0.08011632864068417	0.5491076788523377	1.29890169514979	0.07159953926239891	0.547003371093236	1.7070164462250899	0.10566302994366518	0.33217967312623664	1.7043434833341686	0.03480999624455538	0.4025562948547304	1.744125559218937	0.07843570271582512	0.576619230122932	1.7595420689844994	0.19458811448284502	0.532456649389582	0.30894574709503325	0.2100996794188801	0.49440602940823564	0.04000584747334521	0.19776543613518985	0.4171707489797418	0.1898344146097622	0.354429457022798	0.5462580481419645	0.398639141802074	0.41205747029827877	0.5345991712785453	0.6595273052125602	0.432000176944083	0.4824051732899912	0.8722083505026708	0.393640392585663	0.3944326138653181	0.9669817768928944	0.4139444586748356	0.38698567863404343	0.9754172285001281	0.43187804541945124	0.4865400236909858	1.007262357687018	0.04047739273120699	0.5368829951842128	0.39119329239498074	-0.030675166987347312	0.5436601634119548	0.6407548349848358	-0.03837683688244247	0.517732323610625	0.8674985883609532	-0.026927669337586453	0.5189150612256532	0.9782739972916465	-0.040775926721438975	0.5169882247745567	1.004161314413551	-0.05780504292839056	0.5394870005968406	0.9963590920359883
5	0.10638297872340426	0.3005508330594226	0.5373443036111355	0.8872593897162873	0.2966723420609251	0.5787720039488715	1.3105667033312351	0.2787354600199294	0.6067004249290009	1.7459285712088823	0.27967666123493234	0.3989253178067985	1.7430882910133	0.34504402764607206	0.40100249476253036	1.7306485814908907	0.2501050218091653	0.6705530581175388	1.8050693404998586	0.08011915315447114	0.5189198617873448	0.8921465782081472	0.08007664095410064	0.5490853113689499	1.2989469368513005	0.07156589170994987	0.5471427486707258	1.7070745038450588	0.10569399174231234	0.33224423869770775	1.704359951057047	0.03485141400789262	0.4025635731188696	1.7441265496912632	0.07843498311897364	0.5763689417113445	1.759635939853151	0.19461005899735104	0.5324314770404335	0.3090154297079213	0.21006644300965763	0.49433699141978354	0.0401109904223099	0.19776598676523208	0.4172868090203022	0.18983320285887187	0.35443928910014505	0.5462426398987981	0.39862429788809955	0.4120829002239446	0.5344907630315872	0.6594696461570094	0.43198403432975024	0.48226494562292765	0.8721791543559612	0.3934424018994195	0.3949012131472238	0.9672596870583555	0.4143377549344003	0.38745581932749906	0.9717421640634616	0.432355243552175	0.487151574904591	1.0037711409523282	0.04053248879630779	0.5368648166735153	0.3912022669144407	-0.03061965101533632	0.5436047477346143	0.6406818039573384	-0.03840594651395976	0.5177371161291829	0.8675461021086462	-0.03291664070033329	0.5305082874664877	0.983023685667534	-0.04664370003117289	0.5289492050317744	1.0093721089657706	-0.05782331325667501	0.5393195936225577	0.9963850284479581
6	0.1276595744680851	0.30058172957788165	0.5373612638800721	0.8872928330840216	0.296650895633145	0.578935997479151	1.3106848610660207	0.2787216513674443	0.6066284627473708	1.7459500339839995	0.27967381369175376	0.39892317648362724	1.7432453211861176	0.3450139907442242	0.4006707412643466	1.730649678791408	0.25016719689298555	0.6705376120768658	1.805151597326326	0.08013885326771718	0.5187172857119525	0.8920583171237803	0.08005088507235869	0.548991265545088	1.298933339326447	0.07157607486904294	0.5470648035802338	1.7070542327629503	0.10669049604098883	0.3319414936210934	1.7002102941411594	0.03484050411706709	0.40262089714894445	1.7440165440287922	0.07848585790960708	0.5767902312107229	1.7595173308136032	0.19459848759879628	0.5324459877777064	0.3089768360157678	0.21008212256085299	0.49429670232000517	0.04006948781784241	0.1977062499477161	0.41725101214828375	0.18985791348151548	0.3544690159256932	0.5461919062720484	0.39866932581494363	0.4164960020213423	0.5209785762852973	0.6555570456634466	0.4320951921739763	0.4821672636817889	0.872146124749119	0.3933485242746872	0.39496654522452695	0.9673880698542946	0.4144851626779308	0.3881477001736878	0.97967544586105	0.4324631347889668	0.48806776336086066	1.0112970974165638	0.04050443084424667	0.5368626896073176	0.3912577883413278	-0.030562944111300876	0.5431786004596593	0.6405689137924617	-0.038349192378927525	0.517450646965349	0.8674233585170897	-0.03226903232589596	0.5305771467144111	0.9794919406608119	-0.04691525858463646	0.527823368642815	1.0046279014655735	-0.05775726004006837	0.5387410607321473	0.9962061075552475
